<?xml version="1.0" standalone="no"?>
<!DOCTYPE svg PUBLIC "-//W3C//DTD SVG 20010904//EN"
 "http://www.w3.org/TR/2001/REC-SVG-20010904/DTD/svg10.dtd">
<svg version="1.0" xmlns="http://www.w3.org/2000/svg"
 width="200.000000pt" height="200.000000pt" viewBox="0 0 200.000000 200.000000"
 preserveAspectRatio="xMidYMid meet">
<metadata>
Created by potrace 1.11, written by Peter Selinger 2001-2013
</metadata>
<g transform="translate(0.000000,200.000000) scale(0.100000,-0.100000)"
fill="#000000" stroke="none">
<path d="M915 1851 c-77 -47 -79 -50 -80 -87 -1 -33 5 -45 38 -77 36 -34 38
-40 32 -76 -6 -36 -4 -41 22 -54 l28 -15 0 107 c0 120 15 181 46 181 38 0 66
-134 49 -242 -7 -52 -5 -55 24 -33 28 21 33 19 40 -15 3 -16 9 -30 13 -30 5 1
20 18 35 40 32 46 130 126 166 135 82 21 23 -105 -95 -201 l-53 -43 35 -7 c39
-7 41 -11 20 -40 -19 -28 -12 -33 29 -24 44 10 156 3 204 -13 26 -8 38 -19 40
-34 5 -34 -85 -57 -199 -51 l-88 5 15 -29 c14 -27 19 -29 53 -23 34 6 42 3 70
-25 17 -17 31 -35 31 -39 0 -4 -23 -7 -51 -7 -46 -1 -52 2 -65 29 -14 25 -20
28 -47 23 -36 -7 -47 -17 -28 -24 45 -16 153 -143 166 -195 20 -77 -117 -8
-205 104 l-38 48 -6 -34 c-8 -40 -8 -40 -44 -21 l-27 14 2 -98 c3 -120 -17
-193 -50 -188 -37 6 -64 143 -46 240 8 45 3 52 -25 33 -29 -21 -33 -19 -40 20
l-7 36 -39 -50 c-111 -140 -271 -187 -182 -54 29 43 107 124 137 141 17 10 18
13 5 22 -27 18 -55 11 -72 -17 -15 -24 -23 -28 -67 -29 -28 0 -51 4 -51 8 0 5
15 23 33 39 27 25 37 29 68 24 34 -6 38 -4 57 29 12 20 28 36 35 36 39 0 44
53 6 63 -16 4 -18 1 -13 -18 4 -16 -1 -30 -14 -43 -26 -26 -163 -30 -240 -7
-45 14 -53 19 -50 38 2 15 14 26 41 35 47 15 155 21 206 12 34 -6 38 -5 33 12
-2 10 -8 21 -13 24 -19 11 -8 23 27 30 l35 6 -23 16 c-83 58 -177 183 -164
219 14 36 112 -21 194 -112 39 -44 51 -53 56 -40 12 32 6 51 -22 67 -26 15
-28 22 -29 73 0 49 -4 61 -29 85 l-29 29 -89 -24 c-49 -13 -90 -26 -93 -28 -2
-3 -15 -44 -28 -93 l-23 -89 25 -27 25 -27 -37 -3 c-36 -3 -41 -8 -87 -84
l-49 -81 47 -79 c26 -44 51 -82 56 -85 5 -3 25 -5 44 -4 l34 1 -27 -28 c-17
-18 -27 -38 -25 -51 4 -23 42 -160 47 -165 1 -1 42 -14 91 -27 l89 -24 27 26
27 25 3 -38 c3 -36 7 -41 85 -86 l82 -48 84 49 84 50 -2 41 c-2 33 -9 48 -40
77 -32 30 -36 39 -31 66 8 41 13 44 44 25 24 -15 27 -23 28 -73 1 -49 6 -61
30 -85 l29 -29 89 24 c49 13 90 26 93 28 2 3 15 44 28 93 l24 89 -30 31 -30
31 41 -2 41 -1 50 83 49 84 -47 85 c-47 83 -48 84 -87 84 l-40 0 27 28 26 27
-24 89 c-13 49 -26 91 -28 93 -3 2 -44 15 -93 28 l-89 23 -27 -26 -28 -26 0
40 c0 39 -1 40 -84 87 -46 26 -85 47 -87 46 -2 0 -40 -22 -84 -48z m253 -184
c1 -48 -4 -59 -36 -76 -20 -11 -23 -9 -32 14 -6 15 -10 29 -10 33 0 8 62 72
71 72 3 0 7 -19 7 -43z m-442 -209 c18 -35 18 -34 -21 -42 -26 -6 -36 -1 -68
32 l-37 38 55 1 c52 0 57 -2 71 -29z m637 -10 c-33 -33 -42 -37 -67 -30 -37
10 -41 22 -16 49 15 17 30 21 70 20 l51 -1 -38 -38z m-459 -420 c5 -27 1 -37
-26 -65 -17 -18 -35 -33 -40 -33 -9 0 -8 84 1 97 6 10 42 32 52 33 4 0 9 -14
13 -32z"/>
<path d="M977 1504 c18 -29 31 -30 49 -6 20 25 18 27 -25 28 -40 1 -40 1 -24
-22z"/>
<path d="M870 1486 c0 -8 -10 -21 -22 -27 l-23 -12 22 -10 c33 -14 51 -3 46
27 -6 29 -23 46 -23 22z"/>
<path d="M1107 1470 c-8 -31 19 -53 46 -38 l21 11 -22 8 c-12 5 -22 15 -22 24
0 22 -17 18 -23 -5z"/>
<path d="M1188 1353 c-35 -9 -28 -63 9 -63 10 0 12 6 8 20 -4 12 -1 27 5 35
13 15 9 16 -22 8z"/>
<path d="M848 1213 c-24 -6 -23 -19 2 -26 11 -3 20 -12 20 -21 0 -23 17 -20
23 4 4 16 -17 55 -26 49 -1 -1 -10 -3 -19 -6z"/>
<path d="M1118 1209 c-10 -5 -14 -18 -10 -34 5 -27 22 -35 22 -9 0 9 9 18 20
21 11 3 20 9 20 13 0 12 -36 18 -52 9z"/>
<path d="M976 1148 c-22 -31 -20 -41 5 -28 15 9 24 8 35 -1 20 -17 19 14 -2
35 -20 20 -20 20 -38 -6z"/>
<path d="M1376 555 c-78 -20 -144 -79 -183 -163 -57 -122 -34 -251 47 -265 40
-7 113 20 148 54 44 43 41 59 -4 19 -68 -59 -138 -68 -174 -23 -19 24 -22 37
-18 98 6 87 31 138 96 197 51 45 105 68 161 68 17 0 31 4 31 9 0 15 -56 18
-104 6z"/>
<path d="M795 534 c-84 -44 -135 -96 -135 -136 0 -27 14 -21 26 11 6 15 31 41
55 58 79 54 80 52 42 -55 -63 -178 -103 -240 -168 -262 -53 -18 -42 -31 12
-15 77 23 121 86 182 260 41 116 51 125 52 50 2 -103 9 -168 21 -182 9 -11 17
-8 45 19 19 18 52 61 75 95 23 35 43 62 44 60 2 -1 -6 -36 -17 -77 -26 -101
-34 -198 -17 -230 17 -32 54 -36 96 -10 45 28 40 44 -7 20 -41 -22 -70 -18
-72 9 -5 70 10 142 62 310 16 52 26 97 23 100 -6 6 -54 -46 -82 -89 -36 -55
-124 -172 -127 -168 -2 2 -6 30 -10 63 -16 151 -25 195 -40 195 -6 0 -34 -12
-60 -26z"/>
</g>
</svg>
